<?xml version="1.0" encoding="utf-8"?>
<!-- Generator: Adobe Illustrator 18.0.0, SVG Export Plug-In . SVG Version: 6.00 Build 0)  -->
<!DOCTYPE svg PUBLIC "-//W3C//DTD SVG 1.1//EN" "http://www.w3.org/Graphics/SVG/1.1/DTD/svg11.dtd">
<svg version="1.1" id="Layer_1" xmlns="http://www.w3.org/2000/svg" xmlns:xlink="http://www.w3.org/1999/xlink" x="0px" y="0px"
	 viewBox="387 389 249.9 250.1" enable-background="new 387 389 249.9 250.1" xml:space="preserve">
<path fill="#FFFFFF" d="M623.2,389H400.8c-7.6,0-13.8,6.2-13.8,13.8v222.4c0,7.6,6.2,13.8,13.8,13.8h119.7v-96.8h-32.6v-37.7h32.6
	v-27.7c0-32.3,19.8-49.8,48.5-49.8c13.8,0,25.7,1,29.1,1.5V462h-20c-15.6,0-18.7,7.4-18.7,18.4v24.1h37.4l-4.9,37.7h-32.5V639h63.7
	c7.6,0,13.8-6.2,13.8-13.8V402.7C637,395.1,630.8,389,623.2,389z"/>
</svg>
