<?xml version="1.0" encoding="utf-8"?>
<!-- Generator: Adobe Illustrator 18.0.0, SVG Export Plug-In . SVG Version: 6.00 Build 0)  -->
<!DOCTYPE svg PUBLIC "-//W3C//DTD SVG 1.1//EN" "http://www.w3.org/Graphics/SVG/1.1/DTD/svg11.dtd">
<svg version="1.1" id="Layer_1" xmlns="http://www.w3.org/2000/svg" xmlns:xlink="http://www.w3.org/1999/xlink" x="0px" y="0px"
	 width="100px" height="100px" viewBox="0 0 100 100" enable-background="new 0 0 100 100" xml:space="preserve">
<path fill="#000000" fill-rule="evenodd" clip-rule="evenodd" d="M12.8,0h74.3C94.2,0,100,5.8,100,12.8v74.3c0,7.1-5.8,12.8-12.8,12.8H12.8
	C5.8,100,0,94.2,0,87.2V12.8C0,5.8,5.8,0,12.8,0L12.8,0z M72.8,11.1c-2.5,0-4.5,2-4.5,4.5v10.8c0,2.5,2,4.5,4.5,4.5h11.3
	c2.5,0,4.5-2,4.5-4.5V15.6c0-2.5-2-4.5-4.5-4.5H72.8L72.8,11.1z M88.7,42.3h-8.8c0.8,2.7,1.3,5.6,1.3,8.6C81.2,67.5,67.3,81,50.1,81
	C32.9,81,19,67.5,19,50.9c0-3,0.4-5.9,1.3-8.6h-9.2v42.2c0,2.2,1.8,4,4,4h69.6c2.2,0,4-1.8,4-4V42.3L88.7,42.3z M50.1,30.3
	C39,30.3,30,39,30,49.8c0,10.7,9,19.5,20.1,19.5c11.1,0,20.1-8.7,20.1-19.5C70.2,39,61.2,30.3,50.1,30.3z"/>
</svg>
