<?xml version="1.0" encoding="utf-8"?>
<!-- Generator: Adobe Illustrator 18.0.0, SVG Export Plug-In . SVG Version: 6.00 Build 0)  -->
<!DOCTYPE svg PUBLIC "-//W3C//DTD SVG 1.1//EN" "http://www.w3.org/Graphics/SVG/1.1/DTD/svg11.dtd">
<svg version="1.1" id="Layer_1" xmlns="http://www.w3.org/2000/svg" xmlns:xlink="http://www.w3.org/1999/xlink" x="0px" y="0px"
	 viewBox="210 0.7 99.9 99.9" enable-background="new 210 0.7 99.9 99.9" xml:space="preserve">
<path fill="#FFFFFF" d="M222.8,0.7h74.3c7.1,0,12.8,5.8,12.8,12.8v74.3c0,7.1-5.8,12.8-12.8,12.8h-74.3c-7.1,0-12.8-5.8-12.8-12.8
	V13.5C210,6.4,215.8,0.7,222.8,0.7L222.8,0.7z M282.9,11.8c-2.5,0-4.5,2-4.5,4.5v10.8c0,2.5,2,4.5,4.5,4.5h11.3c2.5,0,4.5-2,4.5-4.5
	V16.3c0-2.5-2-4.5-4.5-4.5L282.9,11.8L282.9,11.8z M298.7,43h-8.8c0.8,2.7,1.3,5.6,1.3,8.6c0,16.6-13.9,30.1-31.1,30.1
	S229,68.2,229,51.6c0-3,0.4-5.9,1.3-8.6h-9.2v42.2c0,2.2,1.8,4,4,4h69.6c2.2,0,4-1.8,4-4V43L298.7,43z M260.1,31
	C249,31,240,39.7,240,50.4s9,19.5,20.1,19.5s20.1-8.7,20.1-19.5C280.2,39.7,271.2,31,260.1,31z"/>
</svg>
