<?xml version="1.0" encoding="utf-8"?>
<!-- Generator: Adobe Illustrator 18.0.0, SVG Export Plug-In . SVG Version: 6.00 Build 0)  -->
<!DOCTYPE svg PUBLIC "-//W3C//DTD SVG 1.1//EN" "http://www.w3.org/Graphics/SVG/1.1/DTD/svg11.dtd">
<svg version="1.1" id="Layer_1" xmlns="http://www.w3.org/2000/svg" xmlns:xlink="http://www.w3.org/1999/xlink" x="0px" y="0px"
	 viewBox="0 0 123 100" enable-background="new 0 0 123 100" xml:space="preserve">
<path fill="#FFFFFF" d="M38.7,100C24.4,100,11.2,95.8,0,88.7C2,88.9,4,89,6,89c11.8,0,22.7-4,31.4-10.8C26.3,78,17,70.7,13.8,60.7
	c1.5,0.3,3.1,0.5,4.7,0.5c2.3,0,4.5-0.3,6.7-0.9C13.6,57.9,4.9,47.7,4.9,35.5c0-0.1,0-0.2,0-0.3c3.4,1.9,7.3,3,11.4,3.2
	c-6.8-4.5-11.2-12.3-11.2-21c0-4.6,1.2-9,3.4-12.7C21,19.9,39.6,29.9,60.6,31c-0.4-1.8-0.7-3.8-0.7-5.8C59.9,11.3,71.3,0,85.2,0
	c7.3,0,13.8,3.1,18.4,8c5.8-1.1,11.2-3.2,16-6.1c-1.9,5.9-5.9,10.8-11.1,14c5.1-0.6,10-2,14.5-4c-3.4,5.1-7.7,9.5-12.6,13.1
	c0,1.1,0.1,2.2,0.1,3.3C110.5,61.5,85.1,100,38.7,100"/>
</svg>
